<?xml version="1.0" standalone="no"?>
<!DOCTYPE svg PUBLIC "-//W3C//DTD SVG 20010904//EN"
 "http://www.w3.org/TR/2001/REC-SVG-20010904/DTD/svg10.dtd">
<svg version="1.0" xmlns="http://www.w3.org/2000/svg"
 width="900.000000pt" height="900.000000pt" viewBox="0 0 900.000000 900.000000"
 preserveAspectRatio="xMidYMid meet">

<g transform="translate(0.000000,900.000000) scale(0.100000,-0.100000)"
fill="#f04b4c" stroke="none">
<path d="M1015 7628 c-87 -16 -207 -81 -277 -150 -102 -102 -154 -218 -164
-368 -13 -183 72 -368 215 -473 31 -23 931 -546 1998 -1162 1068 -616 1938
-1123 1935 -1127 -4 -4 -860 -483 -1902 -1066 -1043 -582 -1917 -1073 -1942
-1090 -96 -66 -182 -190 -213 -308 -9 -33 -16 -99 -16 -150 0 -204 111 -390
291 -487 134 -73 -184 -67 3567 -67 2988 0 3386 2 3438 15 204 52 362 214 411
423 19 78 14 208 -10 285 -53 169 -194 311 -365 370 l-66 22 -2271 5 -2272 5
1389 775 c764 426 1413 793 1443 815 154 114 234 287 223 480 -12 191 -106
347 -270 449 -40 24 -709 412 -1487 861 -778 449 -1419 820 -1424 826 -6 5
898 9 2392 9 1694 0 2417 3 2454 11 91 19 209 82 276 148 230 226 225 585 -10
812 -63 60 -187 123 -272 138 -77 14 -6997 13 -7071 -1z"/>
</g>
</svg>
